# xmcd
#
# Track frame offsets: 
#        150
#        8722
#        30765
#        50950
#        70477
#        90477
#        130502
#        162712
#        180555
#        200027
#        224832
#        245595
#
# Disc length: 3611 seconds
#
# Revision: 5
# Processed by: cddbd v1.5.2PL0 Copyright (c) Steve Scherf et al.
# Submitted via: ExactAudioCopy v1.3
#
DISCID=ae0e190c
DTITLE=Little Feat - Waiting For Columbus
DYEAR=1978
DGENRE=Rock
TTITLE0=Join the Band
TTITLE1=Fat Man in the Bathtub
TTITLE2=All That You Dream
TTITLE3=Oh Atlanta
TTITLE4=Old Folks’ Boogie
TTITLE5=Dixie Chicken
TTITLE6=Tripe Face Boogie
TTITLE7=Rocket in My Pocket
TTITLE8=Time Loves a Hero
TTITLE9=Day or Night
TTITLE10=Mercenary Territory
TTITLE11=Spanish Moon
EXTD=YEAR: 2002
EXTT0=
EXTT1=
EXTT2=
EXTT3=
EXTT4=
EXTT5=
EXTT6=
EXTT7=
EXTT8=
EXTT9=
EXTT10=
EXTT11=
PLAYORDER=
